<svg width="152" height="41" viewBox="0 0 152 41" fill="none" xmlns="http://www.w3.org/2000/svg">
<path d="M11.15 40.35C9.35001 40.35 7.65001 40.0167 6.05001 39.35C4.45001 38.7167 3.15001 37.7333 2.15001 36.4C1.18335 35.0667 0.700012 33.4 0.700012 31.4C0.700012 29.6667 1.03335 28.3167 1.70001 27.35C2.40001 26.3833 3.25001 25.7 4.25001 25.3C5.25001 24.9 6.20001 24.7 7.10001 24.7C6.20001 25.6667 5.51668 26.7333 5.05001 27.9C4.58335 29.0667 4.35001 30.2333 4.35001 31.4C4.35001 32.6333 4.61668 33.7833 5.15001 34.85C5.71668 35.9167 6.56668 36.7667 7.70001 37.4C8.83335 38.0667 10.2667 38.4 12 38.4C13.5 38.4 14.9667 38.1167 16.4 37.55C17.8333 37.0167 19 36.2167 19.9 35.15C20.8333 34.05 21.3 32.7 21.3 31.1C21.3 29.6667 20.9333 28.4333 20.2 27.4C19.4667 26.3667 18.5167 25.45 17.35 24.65C16.2167 23.85 15 23.0833 13.7 22.35C12.4 21.6167 11.1667 20.85 10 20.05C8.86668 19.2167 7.93335 18.2667 7.20001 17.2C6.46668 16.1333 6.10001 14.85 6.10001 13.35C6.10001 11.95 6.43335 10.4833 7.10001 8.95C7.76668 7.41667 8.71668 5.96667 9.95001 4.6C11.2167 3.23333 12.7167 2.13333 14.45 1.3C16.2167 0.433334 18.1833 0 20.35 0C22.3167 0 23.6833 0.483333 24.45 1.45C25.2167 2.38333 25.6 3.56667 25.6 5C25.6 6.2 25.3833 7.5 24.95 8.9C24.55 10.2667 24.05 11.5833 23.45 12.85C22.85 14.0833 22.2833 15.1333 21.75 16C21.15 15.8667 20.7167 15.6167 20.45 15.25C20.2167 14.85 20.1 14.3833 20.1 13.85C20.1 13.15 20.25 12.35 20.55 11.45C20.85 10.55 21.1833 9.61667 21.55 8.65C21.95 7.68333 22.3 6.75 22.6 5.85C22.9 4.91667 23.05 4.08333 23.05 3.35C23.05 2.68333 22.85 2.16667 22.45 1.8C22.05 1.4 21.3167 1.2 20.25 1.2C18.6833 1.2 17.2333 1.56667 15.9 2.3C14.5667 3.03333 13.4 3.98333 12.4 5.15C11.4 6.28333 10.6167 7.48333 10.05 8.75C9.51668 10.0167 9.25001 11.1667 9.25001 12.2C9.25001 13.4333 9.60001 14.5 10.3 15.4C11.0333 16.2667 11.9667 17.0667 13.1 17.8C14.2333 18.5 15.4333 19.2167 16.7 19.95C18 20.65 19.2167 21.4333 20.35 22.3C21.4833 23.1667 22.4 24.2 23.1 25.4C23.8333 26.5667 24.2 28 24.2 29.7C24.2 31.4333 23.8167 32.9667 23.05 34.3C22.2833 35.6 21.25 36.7 19.95 37.6C18.6833 38.5 17.2833 39.1833 15.75 39.65C14.2167 40.1167 12.6833 40.35 11.15 40.35Z" fill="#EE6C4D"/>
<path d="M49.8067 38.45C47.7733 38.45 46.2567 37.8333 45.2567 36.6C44.29 35.3667 43.8067 33.8833 43.8067 32.15C42.3733 34.05 40.7233 35.5333 38.8567 36.6C36.99 37.6667 35.1067 38.2 33.2067 38.2C31.1733 38.2 29.64 37.6333 28.6067 36.5C27.6067 35.4 27.1067 34.0333 27.1067 32.4C27.1067 30.9 27.4733 29.3167 28.2067 27.65C28.9733 25.9833 29.9733 24.4167 31.2067 22.95C32.4733 21.4833 33.8567 20.3 35.3567 19.4C36.8567 18.4667 38.34 18 39.8067 18C40.5733 18 41.2733 18.2 41.9067 18.6C42.5733 19 42.9067 19.8167 42.9067 21.05C42.9067 22.3167 42.5233 23.5167 41.7567 24.65C41.0233 25.75 40.04 26.7333 38.8067 27.6C37.6067 28.4667 36.2733 29.1833 34.8067 29.75C33.3733 30.2833 31.94 30.6167 30.5067 30.75C30.44 31.0833 30.39 31.4 30.3567 31.7C30.3233 32 30.3067 32.2833 30.3067 32.55C30.3067 33.2167 30.4233 33.8833 30.6567 34.55C30.89 35.1833 31.29 35.7 31.8567 36.1C32.4233 36.5333 33.2233 36.75 34.2567 36.75C36.0233 36.75 37.7733 36.1333 39.5067 34.9C41.24 33.6333 42.7567 32.0833 44.0567 30.25C44.3567 28.8833 44.89 27.5167 45.6567 26.15C46.4233 24.7833 47.34 23.55 48.4067 22.45C49.5067 21.3167 50.69 20.4167 51.9567 19.75C53.2233 19.05 54.5067 18.7 55.8067 18.7C56.5733 18.7 57.2733 18.9 57.9067 19.3C58.5733 19.7 58.9067 20.5167 58.9067 21.75C58.9067 23.45 58.3233 24.95 57.1567 26.25C56.0233 27.5167 54.5567 28.5333 52.7567 29.3C50.9567 30.0667 49.1067 30.55 47.2067 30.75C47.14 31.0833 47.09 31.4 47.0567 31.7C47.0233 32 47.0067 32.2833 47.0067 32.55C47.0067 33.2167 47.1067 33.9 47.3067 34.6C47.54 35.3 47.9233 35.8667 48.4567 36.3C49.0233 36.7667 49.8233 37 50.8567 37C52.29 37 53.7233 36.5833 55.1567 35.75C56.59 34.8833 57.9233 33.7667 59.1567 32.4C60.39 31 61.4233 29.5 62.2567 27.9L62.8567 28.35C61.9567 30.35 60.79 32.1167 59.3567 33.65C57.9567 35.15 56.4233 36.3167 54.7567 37.15C53.1233 38.0167 51.4733 38.45 49.8067 38.45ZM30.7567 29.8C31.6567 29.5 32.6733 29.0667 33.8067 28.5C34.94 27.9 36.0233 27.2 37.0567 26.4C38.1233 25.6 38.99 24.7167 39.6567 23.75C40.3567 22.7833 40.7067 21.7667 40.7067 20.7C40.7067 20.3333 40.64 20.05 40.5067 19.85C40.3733 19.65 40.09 19.55 39.6567 19.55C38.8567 19.55 38.0067 19.8667 37.1067 20.5C36.2067 21.1 35.34 21.9 34.5067 22.9C33.6733 23.9 32.9233 25 32.2567 26.2C31.59 27.4 31.09 28.6 30.7567 29.8ZM47.4567 29.8C48.3567 29.5 49.34 29.1 50.4067 28.6C51.4733 28.1 52.49 27.5167 53.4567 26.85C54.4233 26.15 55.2233 25.3667 55.8567 24.5C56.49 23.6 56.8067 22.6167 56.8067 21.55C56.8067 21.1833 56.7233 20.8833 56.5567 20.65C56.39 20.3833 56.09 20.25 55.6567 20.25C54.59 20.25 53.5067 20.7167 52.4067 21.65C51.34 22.5833 50.3567 23.7833 49.4567 25.25C48.59 26.6833 47.9233 28.2 47.4567 29.8Z" fill="#EE6C4D"/>
<path d="M64.1551 37.5C63.5884 37.5 63.0051 37.35 62.4051 37.05C61.8384 36.7833 61.3718 36.3333 61.0051 35.7C60.6051 35.0667 60.4051 34.2667 60.4051 33.3C60.4051 32.2 60.6718 30.9667 61.2051 29.6C61.7384 28.2333 62.4551 26.8833 63.3551 25.55C64.2551 24.1833 65.2884 22.9333 66.4551 21.8C67.6218 20.6333 68.8384 19.7167 70.1051 19.05C71.3718 18.35 72.6218 18 73.8551 18C74.5551 18 75.0884 18.1333 75.4551 18.4C75.8551 18.6333 76.0551 19.0167 76.0551 19.55C76.0551 19.6833 76.0384 19.8 76.0051 19.9C76.0051 20 75.9884 20.1167 75.9551 20.25C75.7884 19.9833 75.5384 19.8 75.2051 19.7C74.9051 19.5667 74.5218 19.5 74.0551 19.5C72.9884 19.5 71.9384 19.8333 70.9051 20.5C69.9051 21.1333 68.9718 21.9833 68.1051 23.05C67.2718 24.0833 66.5384 25.2 65.9051 26.4C65.2718 27.6 64.7718 28.7667 64.4051 29.9C64.0718 31 63.9051 31.9333 63.9051 32.7C63.9051 33.4333 64.0718 34.0167 64.4051 34.45C64.7384 34.8833 65.1718 35.1 65.7051 35.1C66.6051 35.1 67.6884 34.5333 68.9551 33.4C70.2551 32.2667 71.5718 30.6667 72.9051 28.6C74.2384 26.5333 75.4384 24.1167 76.5051 21.35C77.2384 19.4167 77.9884 17.45 78.7551 15.45C79.5551 13.45 80.3551 11.5333 81.1551 9.7C81.9551 7.83333 82.7218 6.18333 83.4551 4.75C84.2218 3.28333 84.9384 2.13333 85.6051 1.3C86.3051 0.433334 86.9218 0 87.4551 0C87.7218 0 87.9551 0.116666 88.1551 0.349998C88.3551 0.55 88.4551 0.816667 88.4551 1.15C88.4551 1.68333 88.1718 2.6 87.6051 3.9C87.0718 5.16667 86.3551 6.7 85.4551 8.5C84.5884 10.2667 83.6718 12.2 82.7051 14.3C81.7384 16.4 80.8051 18.5333 79.9051 20.7C79.0384 22.8667 78.3218 24.9667 77.7551 27C77.2218 29 76.9551 30.8333 76.9551 32.5C76.9551 33.4333 77.0051 34.1333 77.1051 34.6C77.2051 35.0667 77.5384 35.3 78.1051 35.3C78.8051 35.3 79.6218 35 80.5551 34.4C81.4884 33.8 82.4218 32.95 83.3551 31.85C84.2884 30.75 85.1051 29.4333 85.8051 27.9L86.4051 28.35C85.7718 30.05 84.9051 31.5833 83.8051 32.95C82.7051 34.2833 81.5218 35.3333 80.2551 36.1C79.0218 36.9 77.8384 37.3 76.7051 37.3C75.4718 37.3 74.6051 36.8833 74.1051 36.05C73.6384 35.25 73.4051 34.4167 73.4051 33.55C73.4051 32.9833 73.4884 32.2333 73.6551 31.3C73.8218 30.3667 74.0551 29.3333 74.3551 28.2C73.2884 29.9667 72.1551 31.5667 70.9551 33C69.7551 34.4 68.5718 35.5 67.4051 36.3C66.2718 37.1 65.1884 37.5 64.1551 37.5Z" fill="#EE6C4D"/>
<path d="M90.1879 38.8C88.5879 38.8 87.2546 38.2667 86.1879 37.2C85.1212 36.1333 84.5879 34.5333 84.5879 32.4C84.5879 30.7333 84.9046 29.1167 85.5379 27.55C86.2046 25.95 87.0712 24.5167 88.1379 23.25C89.2046 21.9833 90.3879 20.9833 91.6879 20.25C92.9879 19.4833 94.2712 19.1 95.5379 19.1C96.9046 19.1 97.8379 19.5 98.3379 20.3C98.8379 21.1 99.0879 21.9333 99.0879 22.8C99.0879 23.7667 98.8546 24.6167 98.3879 25.35C97.9546 26.0833 97.3546 26.45 96.5879 26.45C96.0212 26.45 95.5379 26.2 95.1379 25.7C95.6379 25.4333 96.0712 24.9 96.4379 24.1C96.8046 23.2667 96.9879 22.4833 96.9879 21.75C96.9879 21.35 96.9046 21.05 96.7379 20.85C96.6046 20.6167 96.3212 20.5 95.8879 20.5C94.9879 20.5 94.0546 20.9 93.0879 21.7C92.1546 22.5 91.2712 23.5333 90.4379 24.8C89.6379 26.0667 88.9712 27.4 88.4379 28.8C87.9379 30.2 87.6879 31.5167 87.6879 32.75C87.6879 33.7833 87.9379 34.7333 88.4379 35.6C88.9379 36.4667 89.9046 36.9 91.3379 36.9C92.6712 36.9 94.0046 36.5333 95.3379 35.8C96.7046 35.0667 97.9712 34.0167 99.1379 32.65C100.305 31.2833 101.238 29.6833 101.938 27.85L102.588 28.35C101.821 30.35 100.771 32.15 99.4379 33.75C98.1046 35.3167 96.6379 36.55 95.0379 37.45C93.4379 38.35 91.8212 38.8 90.1879 38.8Z" fill="#EE6C4D"/>
<path d="M126.2 37.55C125.033 37.55 124.183 37.1833 123.65 36.45C123.117 35.75 122.85 34.9 122.85 33.9C122.85 33.0667 122.967 32.2333 123.2 31.4C123.467 30.5667 123.717 29.75 123.95 28.95C124.217 28.15 124.35 27.4333 124.35 26.8C124.35 26.1333 124.2 25.6667 123.9 25.4C123.6 25.1333 123.267 25 122.9 25C122.067 25 121.15 25.65 120.15 26.95C119.183 28.25 117.917 30.0833 116.35 32.45C115.817 33.25 115.367 34.0667 115 34.9C114.633 35.7 114.283 36.4333 113.95 37.1C113.683 37.1 113.35 37.0667 112.95 37C112.55 36.9333 112.183 36.8167 111.85 36.65C111.55 36.5167 111.4 36.3333 111.4 36.1C111.4 35.8667 111.55 35.3167 111.85 34.45C112.183 33.55 112.55 32.5167 112.95 31.35C113.383 30.15 113.75 28.95 114.05 27.75C114.383 26.5167 114.55 25.4667 114.55 24.6C114.55 24.0333 114.45 23.5833 114.25 23.25C114.083 22.8833 113.767 22.7 113.3 22.7C112.567 22.7 111.683 23.15 110.65 24.05C109.617 24.9167 108.55 26.0667 107.45 27.5C106.35 28.9333 105.3 30.5167 104.3 32.25C103.333 33.95 102.55 35.65 101.95 37.35C101.65 37.35 101.283 37.3 100.85 37.2C100.417 37.1 100.05 36.9667 99.75 36.8C99.4167 36.6333 99.25 36.4667 99.25 36.3C99.25 36.1 99.4333 35.5167 99.8 34.55C100.133 33.55 100.533 32.3667 101 31C101.433 29.6 101.817 28.1833 102.15 26.75C102.517 25.3167 102.7 24.05 102.7 22.95C102.9 22.7167 103.217 22.4833 103.65 22.25C104.083 22.0167 104.533 21.9 105 21.9C105.467 21.9 105.8 22.0167 106 22.25C106.233 22.4833 106.35 22.8 106.35 23.2C106.35 23.6333 106.217 24.3833 105.95 25.45C105.717 26.4833 105.417 27.6333 105.05 28.9C105.717 27.8333 106.467 26.75 107.3 25.65C108.167 24.5167 109.067 23.4833 110 22.55C110.933 21.6167 111.867 20.8667 112.8 20.3C113.767 19.7 114.7 19.4 115.6 19.4C116.633 19.4 117.333 19.7833 117.7 20.55C118.1 21.2833 118.3 22.1667 118.3 23.2C118.3 24.0333 118.2 24.9167 118 25.85C117.833 26.75 117.633 27.6 117.4 28.4C117.167 29.1667 116.95 29.7833 116.75 30.25C117.45 28.9833 118.217 27.7667 119.05 26.6C119.917 25.4 120.85 24.4333 121.85 23.7C122.85 22.9333 123.917 22.55 125.05 22.55C126.117 22.55 126.85 22.8667 127.25 23.5C127.683 24.1333 127.9 24.8833 127.9 25.75C127.9 26.6167 127.75 27.5667 127.45 28.6C127.15 29.6333 126.833 30.6333 126.5 31.6C126.2 32.5667 126.05 33.4 126.05 34.1C126.05 34.5333 126.15 34.9333 126.35 35.3C126.583 35.6333 126.983 35.8 127.55 35.8C128.483 35.8 129.35 35.3833 130.15 34.55C130.983 33.6833 131.75 32.65 132.45 31.45C133.15 30.2167 133.75 29.0333 134.25 27.9L134.85 28.6C134.317 30 133.633 31.4 132.8 32.8C131.967 34.1667 130.983 35.3 129.85 36.2C128.75 37.1 127.533 37.55 126.2 37.55Z" fill="#EE6C4D"/>
<path d="M138.574 38.55C137.008 38.55 135.758 38.2 134.824 37.5C133.924 36.8333 133.291 36 132.924 35C132.524 34 132.324 33 132.324 32C132.324 31 132.458 30.2333 132.724 29.7C132.991 29.1667 133.308 28.7667 133.674 28.5C134.074 28.2333 134.441 28.0333 134.774 27.9C135.141 27.7667 135.391 27.6333 135.524 27.5C136.524 26.4 137.441 25.25 138.274 24.05C139.108 22.85 139.841 21.5833 140.474 20.25V19.65C140.474 18.4167 140.674 17.55 141.074 17.05C141.508 16.5167 141.958 16.25 142.424 16.25C142.691 16.25 142.891 16.3167 143.024 16.45C143.158 16.5833 143.224 16.7333 143.224 16.9C143.224 17.0667 143.174 17.3333 143.074 17.7C142.974 18.0667 142.924 18.5333 142.924 19.1C142.924 20.2 143.141 21.4 143.574 22.7C144.008 23.9667 144.441 25.3167 144.874 26.75C145.308 28.15 145.524 29.6167 145.524 31.15C145.524 31.5833 145.491 32.0167 145.424 32.45C145.391 32.85 145.324 33.2333 145.224 33.6C146.391 33.4 147.491 32.8833 148.524 32.05C149.558 31.1833 150.558 29.8167 151.524 27.95L151.974 28.45C151.341 30.2833 150.391 31.6833 149.124 32.65C147.858 33.5833 146.474 34.1667 144.974 34.4C144.441 35.8333 143.591 36.8833 142.424 37.55C141.291 38.2167 140.008 38.55 138.574 38.55ZM138.674 36.8C139.074 36.8 139.608 36.6667 140.274 36.4C140.941 36.1333 141.458 35.45 141.824 34.35C140.424 34.0833 139.174 33.5333 138.074 32.7C137.008 31.8667 136.208 31.0333 135.674 30.2C134.941 30.2333 134.574 30.8167 134.574 31.95C134.574 33.15 134.924 34.2667 135.624 35.3C136.358 36.3 137.374 36.8 138.674 36.8ZM142.074 33.55C142.141 33.2167 142.191 32.8667 142.224 32.5C142.258 32.1333 142.274 31.7 142.274 31.2C142.274 29.6333 142.074 28.0833 141.674 26.55C141.308 24.9833 140.991 23.5167 140.724 22.15C139.958 23.4167 139.141 24.6333 138.274 25.8C137.441 26.9333 136.641 27.8833 135.874 28.65C136.374 29.7167 137.141 30.7167 138.174 31.65C139.241 32.5833 140.541 33.2167 142.074 33.55Z" fill="#EE6C4D"/>
</svg>
